STARTFONT 2.1
FONT -Monotype-Century Schoolbook-Bold-I-Normal--14-100-100-100-P-76-iso8859-2
SIZE 10 100 100
FONTBOUNDINGBOX 19 18 -3 -4

STARTPROPERTIES 24
FOUNDRY "Monotype"
FAMILY_NAME "Century Schoolbook"
WEIGHT_NAME "Bold"
SLANT "I"
SETWIDTH_NAME "Normal"
ADD_STYLE_NAME ""
PIXEL_SIZE 14
POINT_SIZE 100
RESOLUTION_X 100
RESOLUTION_Y 100
SPACING "P"
AVERAGE_WIDTH 76
CHARSET_REGISTRY "iso8859"
CHARSET_ENCODING "2"
FACE_NAME "Century Schoolbook Bold Italic ISO Latin2"
_DEC_DEVICE_FONTNAMES "PS=centuryschoolbook-bit-lat2"
COPYRIGHT "Copyright (c) 1994 Monotype Typography Ltd."
CAP_HEIGHT 12
X_HEIGHT 8
WEIGHT 10
QUAD_WIDTH 9
DEFAULT_CHAR 160
FONT_DESCENT 4
FONT_ASCENT 14
ENDPROPERTIES

CHARS 191

STARTCHAR space
ENCODING 32
SWIDTH 287 0
DWIDTH 4 0
BBX 0 0 0 0
BITMAP
ENDCHAR

STARTCHAR exclam
ENCODING 33
SWIDTH 333 0
DWIDTH 5 0
BBX 4 10 0 0
BITMAP
30
30
30
60
60
40
40
00
C0
C0
ENDCHAR

STARTCHAR quotedbl
ENCODING 34
SWIDTH 400 0
DWIDTH 6 0
BBX 5 5 1 5
BITMAP
D8
D8
D8
90
90
ENDCHAR

STARTCHAR numbersign
ENCODING 35
SWIDTH 606 0
DWIDTH 8 0
BBX 9 10 0 0
BITMAP
1100
1100
1100
7F80
2200
2200
FF00
4400
4400
4400
ENDCHAR

STARTCHAR dollar
ENCODING 36
SWIDTH 574 0
DWIDTH 8 0
BBX 7 13 1 -2
BITMAP
08
1C
36
32
30
38
18
0C
8C
DC
78
20
20
ENDCHAR

STARTCHAR percent
ENCODING 37
SWIDTH 889 0
DWIDTH 12 0
BBX 9 10 2 0
BITMAP
2100
7200
9400
9400
E900
5380
1480
2480
4700
4200
ENDCHAR

STARTCHAR ampersand
ENCODING 38
SWIDTH 889 0
DWIDTH 12 0
BBX 11 10 1 0
BITMAP
0E00
1B00
1B00
1E00
39E0
6CC0
CC80
CF00
E620
7BC0
ENDCHAR

STARTCHAR quoteright
ENCODING 39
SWIDTH 259 0
DWIDTH 4 0
BBX 3 4 1 6
BITMAP
60
60
20
C0
ENDCHAR

STARTCHAR parenleft
ENCODING 40
SWIDTH 407 0
DWIDTH 6 0
BBX 5 13 1 -3
BITMAP
08
10
30
60
60
C0
C0
C0
C0
C0
C0
40
20
ENDCHAR

STARTCHAR parenright
ENCODING 41
SWIDTH 407 0
DWIDTH 6 0
BBX 5 13 0 -3
BITMAP
20
10
18
18
18
18
18
18
30
30
60
40
80
ENDCHAR

STARTCHAR asterisk
ENCODING 42
SWIDTH 500 0
DWIDTH 7 0
BBX 6 6 1 4
BITMAP
10
D4
78
30
78
CC
ENDCHAR

STARTCHAR plus
ENCODING 43
SWIDTH 606 0
DWIDTH 8 0
BBX 7 7 1 1
BITMAP
10
10
10
FE
10
10
10
ENDCHAR

STARTCHAR comma
ENCODING 44
SWIDTH 287 0
DWIDTH 4 0
BBX 3 4 0 -2
BITMAP
60
60
20
C0
ENDCHAR

STARTCHAR minus
ENCODING 45
SWIDTH 606 0
DWIDTH 8 0
BBX 8 1 1 4
BITMAP
FF
ENDCHAR

STARTCHAR period
ENCODING 46
SWIDTH 287 0
DWIDTH 4 0
BBX 2 2 1 0
BITMAP
C0
C0
ENDCHAR

STARTCHAR slash
ENCODING 47
SWIDTH 278 0
DWIDTH 4 0
BBX 7 10 -1 0
BITMAP
02
06
0C
08
18
30
20
60
C0
80
ENDCHAR

STARTCHAR zero
ENCODING 48
SWIDTH 574 0
DWIDTH 8 0
BBX 7 10 1 0
BITMAP
1C
36
66
66
C6
C6
CC
CC
D8
70
ENDCHAR

STARTCHAR one
ENCODING 49
SWIDTH 574 0
DWIDTH 8 0
BBX 6 10 1 0
BITMAP
0C
3C
0C
18
18
18
30
30
30
FC
ENDCHAR

STARTCHAR two
ENCODING 50
SWIDTH 574 0
DWIDTH 8 0
BBX 8 10 0 0
BITMAP
1E
23
33
13
06
0C
18
22
7E
FC
ENDCHAR

STARTCHAR three
ENCODING 51
SWIDTH 574 0
DWIDTH 8 0
BBX 7 10 1 0
BITMAP
1C
36
16
0C
38
0C
4C
CC
98
70
ENDCHAR

STARTCHAR four
ENCODING 52
SWIDTH 574 0
DWIDTH 8 0
BBX 7 10 1 0
BITMAP
02
06
0E
16
26
4C
CC
FE
18
3C
ENDCHAR

STARTCHAR five
ENCODING 53
SWIDTH 574 0
DWIDTH 8 0
BBX 7 10 1 0
BITMAP
3E
3C
60
78
5C
0C
4C
CC
98
70
ENDCHAR

STARTCHAR six
ENCODING 54
SWIDTH 574 0
DWIDTH 8 0
BBX 7 10 1 0
BITMAP
1C
36
64
60
78
EC
CC
CC
D8
70
ENDCHAR

STARTCHAR seven
ENCODING 55
SWIDTH 574 0
DWIDTH 8 0
BBX 7 10 2 0
BITMAP
7E
FE
86
0C
18
30
30
60
60
60
ENDCHAR

STARTCHAR eight
ENCODING 56
SWIDTH 574 0
DWIDTH 8 0
BBX 7 10 1 0
BITMAP
1C
36
36
34
38
4C
CC
CC
C8
70
ENDCHAR

STARTCHAR nine
ENCODING 57
SWIDTH 574 0
DWIDTH 8 0
BBX 7 10 1 0
BITMAP
1C
36
66
66
6E
3C
0C
4C
D8
70
ENDCHAR

STARTCHAR colon
ENCODING 58
SWIDTH 287 0
DWIDTH 4 0
BBX 3 7 1 0
BITMAP
60
60
00
00
00
C0
C0
ENDCHAR

STARTCHAR semicolon
ENCODING 59
SWIDTH 287 0
DWIDTH 4 0
BBX 4 9 0 -2
BITMAP
30
30
00
00
00
60
60
20
C0
ENDCHAR

STARTCHAR less
ENCODING 60
SWIDTH 606 0
DWIDTH 8 0
BBX 8 7 1 1
BITMAP
03
0E
38
E0
38
0E
03
ENDCHAR

STARTCHAR equal
ENCODING 61
SWIDTH 606 0
DWIDTH 8 0
BBX 8 3 1 3
BITMAP
FF
00
FF
ENDCHAR

STARTCHAR greater
ENCODING 62
SWIDTH 606 0
DWIDTH 8 0
BBX 8 7 1 1
BITMAP
C0
70
1C
07
1C
70
C0
ENDCHAR

STARTCHAR question
ENCODING 63
SWIDTH 481 0
DWIDTH 7 0
BBX 6 10 1 0
BITMAP
18
2C
4C
18
30
60
50
20
C0
C0
ENDCHAR

STARTCHAR at
ENCODING 64
SWIDTH 747 0
DWIDTH 10 0
BBX 10 12 0 -2
BITMAP
1E00
6180
4080
8F40
9640
9640
B640
BD80
9640
4080
6180
1E00
ENDCHAR

STARTCHAR A
ENCODING 65
SWIDTH 741 0
DWIDTH 10 0
BBX 9 10 1 0
BITMAP
0100
0300
0700
0700
0B00
1300
3F00
2300
4300
E780
ENDCHAR

STARTCHAR B
ENCODING 66
SWIDTH 759 0
DWIDTH 11 0
BBX 10 10 1 0
BITMAP
3F80
18C0
18C0
3080
3F00
3080
30C0
60C0
6180
FF00
ENDCHAR

STARTCHAR C
ENCODING 67
SWIDTH 759 0
DWIDTH 11 0
BBX 9 10 2 0
BITMAP
1E80
3380
6100
6100
C000
C000
C000
C100
6200
3C00
ENDCHAR

STARTCHAR D
ENCODING 68
SWIDTH 833 0
DWIDTH 12 0
BBX 11 10 1 0
BITMAP
3F80
18C0
1860
3060
3060
3060
3060
60C0
6180
FE00
ENDCHAR

STARTCHAR E
ENCODING 69
SWIDTH 741 0
DWIDTH 10 0
BBX 10 10 1 0
BITMAP
3F80
18C0
1840
3100
3F00
3200
3200
6080
6180
FF00
ENDCHAR

STARTCHAR F
ENCODING 70
SWIDTH 704 0
DWIDTH 10 0
BBX 10 10 1 0
BITMAP
3F80
18C0
1840
3100
3F00
3200
3200
6000
6000
F000
ENDCHAR

STARTCHAR G
ENCODING 71
SWIDTH 815 0
DWIDTH 11 0
BBX 10 10 1 0
BITMAP
1F40
31C0
6080
6080
C000
C3C0
C180
C380
6300
3D00
ENDCHAR

STARTCHAR H
ENCODING 72
SWIDTH 870 0
DWIDTH 12 0
BBX 12 10 1 0
BITMAP
3CF0
1860
1860
30C0
3FC0
30C0
30C0
6180
6180
F3C0
ENDCHAR

STARTCHAR I
ENCODING 73
SWIDTH 444 0
DWIDTH 6 0
BBX 6 10 1 0
BITMAP
3C
18
18
30
30
30
30
60
60
F0
ENDCHAR

STARTCHAR J
ENCODING 74
SWIDTH 667 0
DWIDTH 9 0
BBX 9 10 1 0
BITMAP
0780
0300
0300
0600
0600
0600
4C00
CC00
9800
7000
ENDCHAR

STARTCHAR K
ENCODING 75
SWIDTH 778 0
DWIDTH 11 0
BBX 11 10 0 0
BITMAP
3CE0
1840
1880
3300
3600
3B00
3300
6180
6180
F3E0
ENDCHAR

STARTCHAR L
ENCODING 76
SWIDTH 704 0
DWIDTH 9 0
BBX 8 10 1 0
BITMAP
3C
18
18
30
30
30
30
61
63
FE
ENDCHAR

STARTCHAR M
ENCODING 77
SWIDTH 944 0
DWIDTH 14 0
BBX 14 10 1 0
BITMAP
3C3C
1C38
1C78
1C70
2CB0
2D30
2D60
4E60
4C60
ECF0
ENDCHAR

STARTCHAR N
ENCODING 78
SWIDTH 852 0
DWIDTH 12 0
BBX 12 10 1 0
BITMAP
3870
1820
1C20
2C40
2640
2640
4380
4380
4180
E180
ENDCHAR

STARTCHAR O
ENCODING 79
SWIDTH 833 0
DWIDTH 12 0
BBX 10 10 2 0
BITMAP
0F00
3180
60C0
60C0
C0C0
C0C0
C180
C180
6300
3C00
ENDCHAR

STARTCHAR P
ENCODING 80
SWIDTH 741 0
DWIDTH 10 0
BBX 10 10 1 0
BITMAP
3F80
19C0
18C0
30C0
3180
3F00
3000
6000
6000
F000
ENDCHAR

STARTCHAR Q
ENCODING 81
SWIDTH 833 0
DWIDTH 12 0
BBX 10 13 2 -3
BITMAP
0F00
3180
60C0
60C0
C0C0
C0C0
D980
F580
6700
3E00
0600
0680
0300
ENDCHAR

STARTCHAR R
ENCODING 82
SWIDTH 796 0
DWIDTH 11 0
BBX 10 10 1 0
BITMAP
3F80
18C0
18C0
3180
3E00
3300
3300
6300
6340
F180
ENDCHAR

STARTCHAR S
ENCODING 83
SWIDTH 685 0
DWIDTH 10 0
BBX 9 10 1 0
BITMAP
1E80
3180
6180
7080
3C00
1E00
8700
C300
C600
BC00
ENDCHAR

STARTCHAR T
ENCODING 84
SWIDTH 722 0
DWIDTH 10 0
BBX 11 10 1 0
BITMAP
7FE0
6660
C620
8C20
0C00
0C00
0C00
1800
1800
3C00
ENDCHAR

STARTCHAR U
ENCODING 85
SWIDTH 833 0
DWIDTH 12 0
BBX 11 10 2 0
BITMAP
78E0
3040
3040
6080
6080
6080
C100
C100
C200
7C00
ENDCHAR

STARTCHAR V
ENCODING 86
SWIDTH 741 0
DWIDTH 9 0
BBX 9 10 2 0
BITMAP
F380
6100
6200
6400
6400
6800
7000
7000
6000
4000
ENDCHAR

STARTCHAR W
ENCODING 87
SWIDTH 944 0
DWIDTH 14 0
BBX 14 10 2 0
BITMAP
F3DC
6188
6390
6590
65A0
69A0
71C0
7180
6180
4100
ENDCHAR

STARTCHAR X
ENCODING 88
SWIDTH 741 0
DWIDTH 10 0
BBX 10 10 1 0
BITMAP
F1C0
6080
3100
1A00
1C00
0C00
1600
2600
4300
E780
ENDCHAR

STARTCHAR Y
ENCODING 89
SWIDTH 704 0
DWIDTH 10 0
BBX 9 10 2 0
BITMAP
F380
6100
3200
3400
1C00
1800
1800
3000
3000
7800
ENDCHAR

STARTCHAR Z
ENCODING 90
SWIDTH 704 0
DWIDTH 10 0
BBX 10 10 1 0
BITMAP
3FC0
61C0
4380
0700
0E00
0C00
1C00
3880
7180
FF00
ENDCHAR

STARTCHAR bracketleft
ENCODING 91
SWIDTH 407 0
DWIDTH 6 0
BBX 7 13 0 -3
BITMAP
1E
18
18
30
30
30
60
60
60
60
C0
C0
F0
ENDCHAR

STARTCHAR backslash
ENCODING 92
SWIDTH 606 0
DWIDTH 8 0
BBX 7 10 1 0
BITMAP
80
C0
60
30
10
18
0C
04
06
02
ENDCHAR

STARTCHAR bracketright
ENCODING 93
SWIDTH 407 0
DWIDTH 6 0
BBX 7 13 -1 -3
BITMAP
1E
06
06
0C
0C
0C
0C
18
18
18
30
30
F0
ENDCHAR

STARTCHAR asciicircum
ENCODING 94
SWIDTH 606 0
DWIDTH 8 0
BBX 6 5 2 5
BITMAP
10
30
78
48
CC
ENDCHAR

STARTCHAR underscore
ENCODING 95
SWIDTH 500 0
DWIDTH 7 0
BBX 7 1 0 -2
BITMAP
FE
ENDCHAR

STARTCHAR quoteleft
ENCODING 96
SWIDTH 259 0
DWIDTH 4 0
BBX 3 4 1 6
BITMAP
60
80
C0
C0
ENDCHAR

STARTCHAR a
ENCODING 97
SWIDTH 667 0
DWIDTH 9 0
BBX 8 7 1 0
BITMAP
3A
6E
C6
C6
CC
DD
6E
ENDCHAR

STARTCHAR b
ENCODING 98
SWIDTH 611 0
DWIDTH 9 0
BBX 7 10 1 0
BITMAP
70
30
30
3C
66
66
66
C6
CC
78
ENDCHAR

STARTCHAR c
ENCODING 99
SWIDTH 537 0
DWIDTH 8 0
BBX 7 7 1 0
BITMAP
3C
66
62
C0
C0
C4
78
ENDCHAR

STARTCHAR d
ENCODING 100
SWIDTH 667 0
DWIDTH 9 0
BBX 8 10 1 0
BITMAP
07
03
03
36
6E
C6
CC
CC
ED
76
ENDCHAR

STARTCHAR e
ENCODING 101
SWIDTH 519 0
DWIDTH 7 0
BBX 6 7 1 0
BITMAP
38
6C
CC
FC
C0
C8
70
ENDCHAR

STARTCHAR f
ENCODING 102
SWIDTH 389 0
DWIDTH 5 0
BBX 7 13 0 -3
BITMAP
0E
1A
18
7C
30
30
60
60
60
60
C0
C0
80
ENDCHAR

STARTCHAR g
ENCODING 103
SWIDTH 611 0
DWIDTH 9 0
BBX 9 11 0 -3
BITMAP
0180
0F00
1300
3300
3200
3C00
6000
7C00
FE00
C600
7C00
ENDCHAR

STARTCHAR h
ENCODING 104
SWIDTH 685 0
DWIDTH 10 0
BBX 9 10 1 0
BITMAP
7000
3000
3000
6E00
7300
6300
6600
C600
C680
C300
ENDCHAR

STARTCHAR i
ENCODING 105
SWIDTH 389 0
DWIDTH 5 0
BBX 4 10 1 0
BITMAP
30
30
00
E0
60
60
C0
C0
D0
60
ENDCHAR

STARTCHAR j
ENCODING 106
SWIDTH 370 0
DWIDTH 5 0
BBX 7 13 -1 -3
BITMAP
06
06
00
1C
0C
0C
0C
18
18
18
30
A0
C0
ENDCHAR

STARTCHAR k
ENCODING 107
SWIDTH 648 0
DWIDTH 9 0
BBX 8 10 1 0
BITMAP
70
30
30
36
7B
63
7E
6C
CD
C6
ENDCHAR

STARTCHAR l
ENCODING 108
SWIDTH 389 0
DWIDTH 5 0
BBX 4 10 1 0
BITMAP
70
30
30
60
60
60
60
C0
D0
60
ENDCHAR

STARTCHAR m
ENCODING 109
SWIDTH 944 0
DWIDTH 13 0
BBX 12 7 1 0
BITMAP
EEC0
7760
6660
6660
CCC0
CCD0
CC60
ENDCHAR

STARTCHAR n
ENCODING 110
SWIDTH 685 0
DWIDTH 10 0
BBX 9 7 1 0
BITMAP
EE00
7300
6300
6300
C600
C680
C300
ENDCHAR

STARTCHAR o
ENCODING 111
SWIDTH 574 0
DWIDTH 8 0
BBX 7 7 1 0
BITMAP
3C
66
C6
C6
C6
CC
78
ENDCHAR

STARTCHAR p
ENCODING 112
SWIDTH 648 0
DWIDTH 9 0
BBX 9 10 0 -3
BITMAP
3700
1980
1980
3180
3180
3B00
3600
6000
6000
F000
ENDCHAR

STARTCHAR q
ENCODING 113
SWIDTH 630 0
DWIDTH 8 0
BBX 7 10 1 -3
BITMAP
3A
66
C6
C6
CC
CC
78
18
18
3C
ENDCHAR

STARTCHAR r
ENCODING 114
SWIDTH 519 0
DWIDTH 7 0
BBX 7 7 1 0
BITMAP
EC
76
60
60
C0
C0
C0
ENDCHAR

STARTCHAR s
ENCODING 115
SWIDTH 481 0
DWIDTH 7 0
BBX 7 7 0 0
BITMAP
3C
66
70
38
0C
CC
78
ENDCHAR

STARTCHAR t
ENCODING 116
SWIDTH 407 0
DWIDTH 6 0
BBX 5 9 2 0
BITMAP
10
30
F8
60
60
C0
C0
D0
60
ENDCHAR

STARTCHAR u
ENCODING 117
SWIDTH 685 0
DWIDTH 10 0
BBX 8 7 2 0
BITMAP
E3
63
63
C6
C6
CE
73
ENDCHAR

STARTCHAR v
ENCODING 118
SWIDTH 556 0
DWIDTH 8 0
BBX 7 7 1 0
BITMAP
E4
66
62
C2
C4
C8
70
ENDCHAR

STARTCHAR w
ENCODING 119
SWIDTH 833 0
DWIDTH 11 0
BBX 10 7 1 0
BITMAP
E680
66C0
6640
CC40
CC80
DD00
6600
ENDCHAR

STARTCHAR x
ENCODING 120
SWIDTH 574 0
DWIDTH 8 0
BBX 8 7 0 0
BITMAP
63
B6
18
18
18
6D
C6
ENDCHAR

STARTCHAR y
ENCODING 121
SWIDTH 519 0
DWIDTH 7 0
BBX 8 10 -1 -3
BITMAP
22
73
19
19
1A
0C
0C
18
90
60
ENDCHAR

STARTCHAR z
ENCODING 122
SWIDTH 519 0
DWIDTH 7 0
BBX 7 7 0 0
BITMAP
3A
5E
0C
18
60
F4
B8
ENDCHAR

STARTCHAR braceleft
ENCODING 123
SWIDTH 407 0
DWIDTH 6 0
BBX 6 13 1 -3
BITMAP
0C
10
30
30
30
E0
40
60
60
C0
C0
C0
60
ENDCHAR

STARTCHAR bar
ENCODING 124
SWIDTH 606 0
DWIDTH 8 0
BBX 2 13 3 -3
BITMAP
C0
C0
C0
C0
C0
C0
C0
C0
C0
C0
C0
C0
C0
ENDCHAR

STARTCHAR braceright
ENCODING 125
SWIDTH 407 0
DWIDTH 6 0
BBX 6 13 -1 -3
BITMAP
18
0C
0C
0C
18
18
08
1C
30
30
30
20
C0
ENDCHAR

STARTCHAR asciitilde
ENCODING 126
SWIDTH 606 0
DWIDTH 8 0
BBX 7 2 1 4
BITMAP
72
9C
ENDCHAR

STARTCHAR space
ENCODING 160
SWIDTH 287 0
DWIDTH 5 0
BBX 0 0 0 0
BITMAP
ENDCHAR

STARTCHAR Aogonek
ENCODING 161
SWIDTH 741 0
DWIDTH 10 0
BBX 10 12 1 -2
BITMAP
0100
0300
0700
0700
0B00
1300
3F00
2300
4300
E780
0300
01C0
ENDCHAR

STARTCHAR breve
ENCODING 162
SWIDTH 333 0
DWIDTH 5 0
BBX 5 2 1 8
BITMAP
88
70
ENDCHAR

STARTCHAR Lslash
ENCODING 163
SWIDTH 704 0
DWIDTH 9 0
BBX 8 10 1 0
BITMAP
3C
18
18
34
38
70
B0
61
63
FE
ENDCHAR

STARTCHAR currency
ENCODING 164
SWIDTH 574 0
DWIDTH 8 0
BBX 6 6 1 2
BITMAP
B4
48
CC
CC
48
B4
ENDCHAR

STARTCHAR Lcaron
ENCODING 165
SWIDTH 704 0
DWIDTH 9 0
BBX 9 10 1 0
BITMAP
3D80
1980
1880
3100
3000
3000
3000
6100
6300
FE00
ENDCHAR

STARTCHAR Sacute
ENCODING 166
SWIDTH 685 0
DWIDTH 10 0
BBX 9 13 1 0
BITMAP
0600
0C00
0000
1E80
3180
6180
7080
3C00
1E00
8700
C300
C600
BC00
ENDCHAR

STARTCHAR section
ENCODING 167
SWIDTH 500 0
DWIDTH 7 0
BBX 7 13 0 -3
BITMAP
1C
26
22
30
78
4C
44
64
3C
18
88
C8
70
ENDCHAR

STARTCHAR dieresis
ENCODING 168
SWIDTH 333 0
DWIDTH 5 0
BBX 5 2 1 8
BITMAP
D8
D8
ENDCHAR

STARTCHAR Scaron
ENCODING 169
SWIDTH 685 0
DWIDTH 10 0
BBX 9 13 1 0
BITMAP
0900
0600
0000
1E80
3180
6180
7080
3C00
1E00
8700
C300
C600
BC00
ENDCHAR

STARTCHAR Scommaaccent
ENCODING 170
SWIDTH 685 0
DWIDTH 10 0
BBX 9 14 1 -4
BITMAP
1E80
3180
6180
7080
3C00
1E00
8700
C300
C600
BC00
0000
1800
1800
3000
ENDCHAR

STARTCHAR Tcaron
ENCODING 171
SWIDTH 722 0
DWIDTH 10 0
BBX 11 13 1 0
BITMAP
0480
0300
0000
7FE0
6660
C620
8C20
0C00
0C00
0C00
1800
1800
3C00
ENDCHAR

STARTCHAR Zacute
ENCODING 172
SWIDTH 704 0
DWIDTH 10 0
BBX 10 13 1 0
BITMAP
0300
0600
0000
3FC0
61C0
4380
0700
0E00
0C00
1C00
3880
7180
FF00
ENDCHAR

STARTCHAR hyphen
ENCODING 173
SWIDTH 333 0
DWIDTH 5 0
BBX 5 1 0 3
BITMAP
F8
ENDCHAR

STARTCHAR Zcaron
ENCODING 174
SWIDTH 704 0
DWIDTH 10 0
BBX 10 13 1 0
BITMAP
0900
0600
0000
3FC0
61C0
4380
0700
0E00
0C00
1C00
3880
7180
FF00
ENDCHAR

STARTCHAR Zdotaccent
ENCODING 175
SWIDTH 704 0
DWIDTH 10 0
BBX 10 13 1 0
BITMAP
0600
0600
0000
3FC0
61C0
4380
0700
0E00
0C00
1C00
3880
7180
FF00
ENDCHAR

STARTCHAR degree
ENCODING 176
SWIDTH 400 0
DWIDTH 6 0
BBX 5 5 1 5
BITMAP
70
D8
88
D8
70
ENDCHAR

STARTCHAR aogonek
ENCODING 177
SWIDTH 667 0
DWIDTH 9 0
BBX 8 9 1 -2
BITMAP
3A
6E
C6
C6
CC
DD
6E
0C
07
ENDCHAR

STARTCHAR ogonek
ENCODING 178
SWIDTH 333 0
DWIDTH 5 0
BBX 4 2 1 -2
BITMAP
C0
70
ENDCHAR

STARTCHAR lslash
ENCODING 179
SWIDTH 389 0
DWIDTH 5 0
BBX 6 10 0 0
BITMAP
38
18
18
34
38
70
B0
60
68
30
ENDCHAR

STARTCHAR acute
ENCODING 180
SWIDTH 333 0
DWIDTH 5 0
BBX 3 2 2 8
BITMAP
60
C0
ENDCHAR

STARTCHAR lcaron
ENCODING 181
SWIDTH 449 0
DWIDTH 5 0
BBX 7 10 1 0
BITMAP
76
36
32
64
60
60
60
C0
D0
60
ENDCHAR

STARTCHAR sacute
ENCODING 182
SWIDTH 481 0
DWIDTH 7 0
BBX 7 10 0 0
BITMAP
0C
18
00
3C
66
70
38
0C
CC
78
ENDCHAR

STARTCHAR caron
ENCODING 183
SWIDTH 333 0
DWIDTH 5 0
BBX 4 2 2 8
BITMAP
90
60
ENDCHAR

STARTCHAR commaaccent
ENCODING 184
SWIDTH 333 0
DWIDTH 5 0
BBX 3 3 1 -4
BITMAP
60
60
C0
ENDCHAR

STARTCHAR scaron
ENCODING 185
SWIDTH 481 0
DWIDTH 7 0
BBX 7 10 0 0
BITMAP
24
18
00
3C
66
70
38
0C
CC
78
ENDCHAR

STARTCHAR scommaaccent
ENCODING 186
SWIDTH 481 0
DWIDTH 7 0
BBX 7 11 0 -4
BITMAP
3C
66
70
38
0C
CC
78
00
30
30
60
ENDCHAR

STARTCHAR tcaron
ENCODING 187
SWIDTH 506 0
DWIDTH 6 0
BBX 6 10 2 0
BITMAP
04
14
38
F8
60
60
C0
C0
D0
60
ENDCHAR

STARTCHAR zacute
ENCODING 188
SWIDTH 519 0
DWIDTH 7 0
BBX 7 10 0 0
BITMAP
0C
18
00
3A
5E
0C
18
60
F4
B8
ENDCHAR

STARTCHAR hungarumlaut
ENCODING 189
SWIDTH 333 0
DWIDTH 5 0
BBX 6 2 1 8
BITMAP
6C
D8
ENDCHAR

STARTCHAR zcaron
ENCODING 190
SWIDTH 519 0
DWIDTH 7 0
BBX 7 10 0 0
BITMAP
12
0C
00
3A
5E
0C
18
60
F4
B8
ENDCHAR

STARTCHAR zdotaccent
ENCODING 191
SWIDTH 519 0
DWIDTH 7 0
BBX 7 10 0 0
BITMAP
0C
0C
00
3A
5E
0C
18
60
F4
B8
ENDCHAR

STARTCHAR Racute
ENCODING 192
SWIDTH 796 0
DWIDTH 11 0
BBX 10 13 1 0
BITMAP
0300
0600
0000
3F80
18C0
18C0
3180
3E00
3300
3300
6300
6340
F180
ENDCHAR

STARTCHAR Aacute
ENCODING 193
SWIDTH 741 0
DWIDTH 10 0
BBX 9 13 1 0
BITMAP
0180
0300
0000
0100
0300
0700
0700
0B00
1300
3F00
2300
4300
E780
ENDCHAR

STARTCHAR Acircumflex
ENCODING 194
SWIDTH 741 0
DWIDTH 10 0
BBX 10 13 1 0
BITMAP
0180
0240
0000
0100
0300
0700
0700
0B00
1300
3F00
2300
4300
E780
ENDCHAR

STARTCHAR Abreve
ENCODING 195
SWIDTH 741 0
DWIDTH 10 0
BBX 10 13 1 0
BITMAP
0440
0380
0000
0100
0300
0700
0700
0B00
1300
3F00
2300
4300
E780
ENDCHAR

STARTCHAR Adieresis
ENCODING 196
SWIDTH 741 0
DWIDTH 10 0
BBX 10 13 1 0
BITMAP
06C0
06C0
0000
0100
0300
0700
0700
0B00
1300
3F00
2300
4300
E780
ENDCHAR

STARTCHAR Lacute
ENCODING 197
SWIDTH 704 0
DWIDTH 9 0
BBX 8 13 1 0
BITMAP
0C
18
00
3C
18
18
30
30
30
30
61
63
FE
ENDCHAR

STARTCHAR Cacute
ENCODING 198
SWIDTH 759 0
DWIDTH 11 0
BBX 9 13 2 0
BITMAP
0600
0C00
0000
1E80
3380
6100
6100
C000
C000
C000
C100
6200
3C00
ENDCHAR

STARTCHAR Ccedilla
ENCODING 199
SWIDTH 759 0
DWIDTH 11 0
BBX 9 13 2 -3
BITMAP
1E80
3380
6100
6100
C000
C000
C000
C100
6200
3C00
1000
0800
3000
ENDCHAR

STARTCHAR Ccaron
ENCODING 200
SWIDTH 759 0
DWIDTH 11 0
BBX 9 13 2 0
BITMAP
0900
0600
0000
1E80
3380
6100
6100
C000
C000
C000
C100
6200
3C00
ENDCHAR

STARTCHAR Eacute
ENCODING 201
SWIDTH 741 0
DWIDTH 10 0
BBX 10 13 1 0
BITMAP
0300
0600
0000
3F80
18C0
1840
3100
3F00
3200
3200
6080
6180
FF00
ENDCHAR

STARTCHAR Eogonek
ENCODING 202
SWIDTH 741 0
DWIDTH 10 0
BBX 10 12 1 -2
BITMAP
3F80
18C0
1840
3100
3F00
3200
3200
6080
6180
FF00
0600
0380
ENDCHAR

STARTCHAR Edieresis
ENCODING 203
SWIDTH 741 0
DWIDTH 10 0
BBX 10 13 1 0
BITMAP
0D80
0D80
0000
3F80
18C0
1840
3100
3F00
3200
3200
6080
6180
FF00
ENDCHAR

STARTCHAR Ecaron
ENCODING 204
SWIDTH 741 0
DWIDTH 10 0
BBX 10 13 1 0
BITMAP
0480
0300
0000
3F80
18C0
1840
3100
3F00
3200
3200
6080
6180
FF00
ENDCHAR

STARTCHAR Iacute
ENCODING 205
SWIDTH 444 0
DWIDTH 6 0
BBX 7 13 1 0
BITMAP
06
0C
00
3C
18
18
30
30
30
30
60
60
F0
ENDCHAR

STARTCHAR Icircumflex
ENCODING 206
SWIDTH 444 0
DWIDTH 6 0
BBX 7 13 1 0
BITMAP
0C
12
00
3C
18
18
30
30
30
30
60
60
F0
ENDCHAR

STARTCHAR Dcaron
ENCODING 207
SWIDTH 833 0
DWIDTH 12 0
BBX 11 13 1 0
BITMAP
0480
0300
0000
3F80
18C0
1860
3060
3060
3060
3060
60C0
6180
FE00
ENDCHAR

STARTCHAR Dcroat
ENCODING 208
SWIDTH 833 0
DWIDTH 12 0
BBX 11 10 1 0
BITMAP
3F80
18C0
1860
3060
7E60
3060
3060
60C0
6180
FE00
ENDCHAR

STARTCHAR Nacute
ENCODING 209
SWIDTH 852 0
DWIDTH 12 0
BBX 12 13 1 0
BITMAP
0180
0300
0000
3870
1820
1C20
2C40
2640
2640
4380
4380
4180
E180
ENDCHAR

STARTCHAR Ncaron
ENCODING 210
SWIDTH 852 0
DWIDTH 12 0
BBX 12 13 1 0
BITMAP
0480
0300
0000
3870
1820
1C20
2C40
2640
2640
4380
4380
4180
E180
ENDCHAR

STARTCHAR Oacute
ENCODING 211
SWIDTH 833 0
DWIDTH 12 0
BBX 10 13 2 0
BITMAP
0300
0600
0000
0F00
3180
60C0
60C0
C0C0
C0C0
C180
C180
6300
3C00
ENDCHAR

STARTCHAR Ocircumflex
ENCODING 212
SWIDTH 833 0
DWIDTH 12 0
BBX 10 13 2 0
BITMAP
0600
0900
0000
0F00
3180
60C0
60C0
C0C0
C0C0
C180
C180
6300
3C00
ENDCHAR

STARTCHAR Ohungarumlaut
ENCODING 213
SWIDTH 833 0
DWIDTH 12 0
BBX 10 13 2 0
BITMAP
0D80
1B00
0000
0F00
3180
60C0
60C0
C0C0
C0C0
C180
C180
6300
3C00
ENDCHAR

STARTCHAR Odieresis
ENCODING 214
SWIDTH 833 0
DWIDTH 12 0
BBX 10 13 2 0
BITMAP
0D80
0D80
0000
0F00
3180
60C0
60C0
C0C0
C0C0
C180
C180
6300
3C00
ENDCHAR

STARTCHAR multiply
ENCODING 215
SWIDTH 650 0
DWIDTH 9 0
BBX 6 7 2 1
BITMAP
84
CC
78
30
78
CC
84
ENDCHAR

STARTCHAR Rcaron
ENCODING 216
SWIDTH 796 0
DWIDTH 11 0
BBX 10 13 1 0
BITMAP
0480
0300
0000
3F80
18C0
18C0
3180
3E00
3300
3300
6300
6340
F180
ENDCHAR

STARTCHAR Uring
ENCODING 217
SWIDTH 833 0
DWIDTH 12 0
BBX 11 14 2 0
BITMAP
0200
0500
0200
0000
78E0
3040
3040
6080
6080
6080
C100
C100
C200
7C00
ENDCHAR

STARTCHAR Uacute
ENCODING 218
SWIDTH 833 0
DWIDTH 12 0
BBX 11 13 2 0
BITMAP
0300
0600
0000
78E0
3040
3040
6080
6080
6080
C100
C100
C200
7C00
ENDCHAR

STARTCHAR Uhungarumlaut
ENCODING 219
SWIDTH 833 0
DWIDTH 12 0
BBX 11 13 2 0
BITMAP
06C0
0D80
0000
78E0
3040
3040
6080
6080
6080
C100
C100
C200
7C00
ENDCHAR

STARTCHAR Udieresis
ENCODING 220
SWIDTH 833 0
DWIDTH 12 0
BBX 11 13 2 0
BITMAP
0D80
0D80
0000
78E0
3040
3040
6080
6080
6080
C100
C100
C200
7C00
ENDCHAR

STARTCHAR Yacute
ENCODING 221
SWIDTH 704 0
DWIDTH 10 0
BBX 9 13 2 0
BITMAP
0600
0C00
0000
F380
6100
3200
3400
1C00
1800
1800
3000
3000
7800
ENDCHAR

STARTCHAR Tcommaaccent
ENCODING 222
SWIDTH 722 0
DWIDTH 10 0
BBX 11 14 1 -4
BITMAP
7FE0
6660
C620
8C20
0C00
0C00
0C00
1800
1800
3C00
0000
1800
1800
3000
ENDCHAR

STARTCHAR germandbls
ENCODING 223
SWIDTH 574 0
DWIDTH 8 0
BBX 10 13 -1 -3
BITMAP
0780
0CC0
0CC0
1880
1B00
1900
3180
3180
3580
3300
6000
6000
C000
ENDCHAR

STARTCHAR racute
ENCODING 224
SWIDTH 519 0
DWIDTH 7 0
BBX 7 10 1 0
BITMAP
0C
18
00
EC
76
60
60
C0
C0
C0
ENDCHAR

STARTCHAR aacute
ENCODING 225
SWIDTH 667 0
DWIDTH 9 0
BBX 8 10 1 0
BITMAP
0C
18
00
3A
6E
C6
C6
CC
DD
6E
ENDCHAR

STARTCHAR acircumflex
ENCODING 226
SWIDTH 667 0
DWIDTH 9 0
BBX 8 10 1 0
BITMAP
18
24
00
3A
6E
C6
C6
CC
DD
6E
ENDCHAR

STARTCHAR abreve
ENCODING 227
SWIDTH 667 0
DWIDTH 9 0
BBX 8 10 1 0
BITMAP
22
1C
00
3A
6E
C6
C6
CC
DD
6E
ENDCHAR

STARTCHAR adieresis
ENCODING 228
SWIDTH 667 0
DWIDTH 9 0
BBX 8 10 1 0
BITMAP
36
36
00
3A
6E
C6
C6
CC
DD
6E
ENDCHAR

STARTCHAR lacute
ENCODING 229
SWIDTH 389 0
DWIDTH 5 0
BBX 5 13 1 0
BITMAP
18
30
00
70
30
30
60
60
60
60
C0
D0
60
ENDCHAR

STARTCHAR cacute
ENCODING 230
SWIDTH 537 0
DWIDTH 8 0
BBX 7 10 1 0
BITMAP
0C
18
00
3C
66
62
C0
C0
C4
78
ENDCHAR

STARTCHAR ccedilla
ENCODING 231
SWIDTH 537 0
DWIDTH 8 0
BBX 7 10 1 -3
BITMAP
3C
66
62
C0
C0
C4
78
20
10
60
ENDCHAR

STARTCHAR ccaron
ENCODING 232
SWIDTH 537 0
DWIDTH 8 0
BBX 7 10 1 0
BITMAP
24
18
00
3C
66
62
C0
C0
C4
78
ENDCHAR

STARTCHAR eacute
ENCODING 233
SWIDTH 519 0
DWIDTH 7 0
BBX 6 10 1 0
BITMAP
0C
18
00
38
6C
CC
FC
C0
C8
70
ENDCHAR

STARTCHAR eogonek
ENCODING 234
SWIDTH 519 0
DWIDTH 7 0
BBX 6 9 1 -2
BITMAP
38
6C
CC
FC
C0
C8
70
30
1C
ENDCHAR

STARTCHAR edieresis
ENCODING 235
SWIDTH 519 0
DWIDTH 7 0
BBX 6 10 1 0
BITMAP
6C
6C
00
38
6C
CC
FC
C0
C8
70
ENDCHAR

STARTCHAR ecaron
ENCODING 236
SWIDTH 519 0
DWIDTH 7 0
BBX 6 10 1 0
BITMAP
24
18
00
38
6C
CC
FC
C0
C8
70
ENDCHAR

STARTCHAR iacute
ENCODING 237
SWIDTH 389 0
DWIDTH 5 0
BBX 4 10 1 0
BITMAP
30
60
00
E0
60
60
C0
C0
D0
60
ENDCHAR

STARTCHAR icircumflex
ENCODING 238
SWIDTH 389 0
DWIDTH 5 0
BBX 4 10 1 0
BITMAP
60
90
00
E0
60
60
C0
C0
D0
60
ENDCHAR

STARTCHAR dcaron
ENCODING 239
SWIDTH 730 0
DWIDTH 9 0
BBX 11 10 1 0
BITMAP
0760
0360
0320
3640
6E00
C600
CC00
CC00
ED00
7600
ENDCHAR

STARTCHAR dcroat
ENCODING 240
SWIDTH 667 0
DWIDTH 9 0
BBX 9 10 1 0
BITMAP
0700
0300
0F80
3600
6E00
C600
CC00
CC00
ED00
7600
ENDCHAR

STARTCHAR nacute
ENCODING 241
SWIDTH 685 0
DWIDTH 10 0
BBX 9 10 1 0
BITMAP
0C00
1800
0000
EE00
7300
6300
6300
C600
C680
C300
ENDCHAR

STARTCHAR ncaron
ENCODING 242
SWIDTH 685 0
DWIDTH 10 0
BBX 9 10 1 0
BITMAP
1200
0C00
0000
EE00
7300
6300
6300
C600
C680
C300
ENDCHAR

STARTCHAR oacute
ENCODING 243
SWIDTH 574 0
DWIDTH 8 0
BBX 7 10 1 0
BITMAP
0C
18
00
3C
66
C6
C6
C6
CC
78
ENDCHAR

STARTCHAR ocircumflex
ENCODING 244
SWIDTH 574 0
DWIDTH 8 0
BBX 7 10 1 0
BITMAP
0C
12
00
3C
66
C6
C6
C6
CC
78
ENDCHAR

STARTCHAR ohungarumlaut
ENCODING 245
SWIDTH 574 0
DWIDTH 8 0
BBX 8 10 1 0
BITMAP
1B
36
00
3C
66
C6
C6
C6
CC
78
ENDCHAR

STARTCHAR odieresis
ENCODING 246
SWIDTH 574 0
DWIDTH 8 0
BBX 7 10 1 0
BITMAP
36
36
00
3C
66
C6
C6
C6
CC
78
ENDCHAR

STARTCHAR divide
ENCODING 247
SWIDTH 650 0
DWIDTH 9 0
BBX 8 7 1 1
BITMAP
18
18
00
FF
00
18
18
ENDCHAR

STARTCHAR rcaron
ENCODING 248
SWIDTH 519 0
DWIDTH 7 0
BBX 7 10 1 0
BITMAP
24
18
00
EC
76
60
60
C0
C0
C0
ENDCHAR

STARTCHAR uring
ENCODING 249
SWIDTH 685 0
DWIDTH 10 0
BBX 8 11 2 0
BITMAP
08
14
08
00
E3
63
63
C6
C6
CE
73
ENDCHAR

STARTCHAR uacute
ENCODING 250
SWIDTH 685 0
DWIDTH 10 0
BBX 8 10 2 0
BITMAP
06
0C
00
E3
63
63
C6
C6
CE
73
ENDCHAR

STARTCHAR uhungarumlaut
ENCODING 251
SWIDTH 685 0
DWIDTH 10 0
BBX 8 10 2 0
BITMAP
1B
36
00
E3
63
63
C6
C6
CE
73
ENDCHAR

STARTCHAR udieresis
ENCODING 252
SWIDTH 685 0
DWIDTH 10 0
BBX 8 10 2 0
BITMAP
36
36
00
E3
63
63
C6
C6
CE
73
ENDCHAR

STARTCHAR yacute
ENCODING 253
SWIDTH 519 0
DWIDTH 7 0
BBX 8 13 -1 -3
BITMAP
06
0C
00
22
73
19
19
1A
0C
0C
18
90
60
ENDCHAR

STARTCHAR tcommaaccent
ENCODING 254
SWIDTH 407 0
DWIDTH 6 0
BBX 6 13 1 -4
BITMAP
08
18
7C
30
30
60
60
68
30
00
60
60
C0
ENDCHAR

STARTCHAR dotaccent
ENCODING 255
SWIDTH 333 0
DWIDTH 5 0
BBX 2 2 2 8
BITMAP
C0
C0
ENDCHAR
ENDFONT
